<?xml version="1.0" encoding="UTF-8" standalone="no"?>
<!-- Created with Inkscape (http://www.inkscape.org/) -->

<svg
   xmlns:dc="http://purl.org/dc/elements/1.1/"
   xmlns:cc="http://creativecommons.org/ns#"
   xmlns:rdf="http://www.w3.org/1999/02/22-rdf-syntax-ns#"
   xmlns:svg="http://www.w3.org/2000/svg"
   xmlns="http://www.w3.org/2000/svg"
   xmlns:sodipodi="http://sodipodi.sourceforge.net/DTD/sodipodi-0.dtd"
   xmlns:inkscape="http://www.inkscape.org/namespaces/inkscape"
   version="1.1"
   id="svg2"
   xml:space="preserve"
   width="125.5508"
   height="122.65493"
   viewBox="0 0 125.5508 122.65493"
   sodipodi:docname="expensive.svg"
   inkscape:version="0.92.1 r15371"><metadata
     id="metadata8"><rdf:RDF><cc:Work
         rdf:about=""><dc:format>image/svg+xml</dc:format><dc:type
           rdf:resource="http://purl.org/dc/dcmitype/StillImage" /><dc:title></dc:title></cc:Work></rdf:RDF></metadata><defs
     id="defs6"><clipPath
       clipPathUnits="userSpaceOnUse"
       id="clipPath18"><path
         d="M 0,91.991 H 94.163 V 0 H 0 Z"
         id="path16"
         inkscape:connector-curvature="0" /></clipPath></defs><sodipodi:namedview
     pagecolor="#ffffff"
     bordercolor="#666666"
     borderopacity="1"
     objecttolerance="10"
     gridtolerance="10"
     guidetolerance="10"
     inkscape:pageopacity="0"
     inkscape:pageshadow="2"
     inkscape:window-width="640"
     inkscape:window-height="480"
     id="namedview4"
     showgrid="false"
     inkscape:zoom="1.9240971"
     inkscape:cx="62.775398"
     inkscape:cy="61.327465"
     inkscape:window-x="0"
     inkscape:window-y="0"
     inkscape:window-maximized="0"
     inkscape:current-layer="g10" /><g
     id="g10"
     inkscape:groupmode="layer"
     inkscape:label="Vector Smart Object2"
     transform="matrix(1.3333333,0,0,-1.3333333,0,122.65493)"><g
       id="g12"><g
         id="g14"
         clip-path="url(#clipPath18)"><g
           id="g20"
           transform="translate(47.082,83.8184)"><path
             d="m 0,0 c 5.029,0 9.105,-4.077 9.105,-9.106 0,-5.029 -4.076,-9.106 -9.105,-9.106 -5.029,0 -9.106,4.077 -9.106,9.106 C -9.106,-4.077 -5.029,0 0,0"
             style="fill:#ed1c24;fill-opacity:1;fill-rule:nonzero;stroke:none"
             id="path22"
             inkscape:connector-curvature="0" /></g><g
           id="g24"
           transform="translate(60.501,38.8232)"><path
             d="m 0,0 -26.839,-26.84 v 15.076 L 0,15.075 Z M 0,-28.717 H -13.474 L 0,-15.242 Z M -26.839,16.677 H -13.64 L -26.839,3.479 Z M 6.957,26.783 h -20.376 -20.377 c -1.55,0 -2.817,-1.268 -2.817,-2.817 v -4.47 c 0,-1.55 1.268,-2.818 2.817,-2.818 h 0.828 v -45.394 h -0.828 c -1.55,0 -2.817,-1.268 -2.817,-2.818 v -4.471 c 0,-1.552 1.268,-2.818 2.817,-2.818 H 6.957 c 1.551,0 2.817,1.268 2.817,2.818 v 4.471 c 0,1.55 -1.269,2.818 -2.817,2.818 H 6.131 v 45.393 h 0.826 c 1.551,0 2.817,1.268 2.817,2.818 v 4.47 c 0,1.55 -1.266,2.818 -2.817,2.818"
             style="fill:#ed1c24;fill-opacity:1;fill-rule:nonzero;stroke:none"
             id="path26"
             inkscape:connector-curvature="0" /></g><g
           id="g28"
           transform="translate(47.0811,91.9912)"><path
             d="m 0,0 c -26.002,0 -47.081,-21.079 -47.081,-47.081 0,-15.428 7.421,-29.122 18.888,-37.709 v 0.088 c 0,1.505 0.438,2.903 1.177,4.098 -9.788,7.903 -16.065,19.991 -16.065,33.523 C -43.081,-23.326 -23.755,-4 0,-4 c 23.754,0 43.081,-19.326 43.081,-43.081 0,-13.53 -6.275,-25.618 -16.062,-33.523 0.738,-1.193 1.177,-2.593 1.177,-4.098 v -0.086 c 11.466,8.587 18.886,22.28 18.886,37.707 C 47.081,-21.079 26.002,0 0,0"
             style="fill:#ed1c24;fill-opacity:1;fill-rule:nonzero;stroke:none"
             id="path30"
             inkscape:connector-curvature="0" /></g></g></g></g></svg>