<?xml version="1.0" encoding="UTF-8" standalone="no"?>
<!-- Created with Inkscape (http://www.inkscape.org/) -->

<svg
   xmlns:dc="http://purl.org/dc/elements/1.1/"
   xmlns:cc="http://creativecommons.org/ns#"
   xmlns:rdf="http://www.w3.org/1999/02/22-rdf-syntax-ns#"
   xmlns:svg="http://www.w3.org/2000/svg"
   xmlns="http://www.w3.org/2000/svg"
   xmlns:sodipodi="http://sodipodi.sourceforge.net/DTD/sodipodi-0.dtd"
   xmlns:inkscape="http://www.inkscape.org/namespaces/inkscape"
   version="1.1"
   id="svg2"
   xml:space="preserve"
   width="301.08401"
   height="40.052799"
   viewBox="0 0 301.08401 40.052799"
   sodipodi:docname="logotype-mobile.svg"
   inkscape:version="0.92.1 r15371"><metadata
     id="metadata8"><rdf:RDF><cc:Work
         rdf:about=""><dc:format>image/svg+xml</dc:format><dc:type
           rdf:resource="http://purl.org/dc/dcmitype/StillImage" /><dc:title></dc:title></cc:Work></rdf:RDF></metadata><defs
     id="defs6"><clipPath
       clipPathUnits="userSpaceOnUse"
       id="clipPath30"><path
         d="M 0,30.04 H 225.813 V 0 H 0 Z"
         id="path28"
         inkscape:connector-curvature="0" /></clipPath></defs><sodipodi:namedview
     pagecolor="#ffffff"
     bordercolor="#666666"
     borderopacity="1"
     objecttolerance="10"
     gridtolerance="10"
     guidetolerance="10"
     inkscape:pageopacity="0"
     inkscape:pageshadow="2"
     inkscape:window-width="640"
     inkscape:window-height="438"
     id="namedview4"
     showgrid="false"
     inkscape:zoom="1.2953195"
     inkscape:cx="150.54201"
     inkscape:cy="20.0264"
     inkscape:window-x="875"
     inkscape:window-y="299"
     inkscape:window-maximized="0"
     inkscape:current-layer="g10" /><g
     id="g10"
     inkscape:groupmode="layer"
     inkscape:label="Vector Smart Object"
     transform="matrix(1.3333333,0,0,-1.3333333,0,40.0528)"><g
       id="g12"
       transform="translate(0,16.8669)"><path
         d="M 0,0 3.494,-3.494 6.988,0 3.494,3.494 Z"
         style="fill:#ffffff;fill-opacity:1;fill-rule:nonzero;stroke:none"
         id="path14"
         inkscape:connector-curvature="0" /></g><g
       id="g16"
       transform="translate(222.1143,16.8564)"><path
         d="m 0,0 -3.493,-3.493 -3.495,3.494 3.493,3.494 z"
         style="fill:#ffffff;fill-opacity:1;fill-rule:nonzero;stroke:none"
         id="path18"
         inkscape:connector-curvature="0" /></g><g
       id="g20"
       transform="translate(28.6025,16.7427)"><path
         d="M 0,0 H 1.273 V 5.088 H 3.275 V 6.361 H 0 Z"
         style="fill:#636466;fill-opacity:1;fill-rule:nonzero;stroke:none"
         id="path22"
         inkscape:connector-curvature="0" /></g><g
       id="g24"><g
         id="g26"
         clip-path="url(#clipPath30)"><g
           id="g32"
           transform="translate(37.7061,15.8086)"><path
             d="M 0,0 V 7.753 C 0,8.85 -0.653,9.785 -1.567,10.24 -1.386,9.872 -1.274,9.464 -1.274,9.027 V 1.274 c 0,-0.865 -0.375,-1.619 -1.016,-2.146 0.563,-0.603 1.016,-1.28 1.016,-2.259 v -8.619 c 0,-1.505 -1.28,-2.785 -2.786,-2.785 h -8.287 v -1.274 h 9.562 c 1.505,0 2.785,1.28 2.785,2.786 v 8.619 c 0,0.978 -0.451,1.656 -1.017,2.259 C -0.377,-1.619 0,-0.866 0,0"
             style="fill:#636466;fill-opacity:1;fill-rule:nonzero;stroke:none"
             id="path34"
             inkscape:connector-curvature="0" /></g><g
           id="g36"
           transform="translate(28.6025,5.8281)"><path
             d="M 0,0 H 1.273 V 5.125 H 3.275 V 6.398 H 0 Z"
             style="fill:#636466;fill-opacity:1;fill-rule:nonzero;stroke:none"
             id="path38"
             inkscape:connector-curvature="0" /></g><g
           id="g40"
           transform="translate(48.7783,5.8281)"><path
             d="m 0,0 h 1.273 v 16.002 h 2.002 v 1.273 H 0 Z"
             style="fill:#636466;fill-opacity:1;fill-rule:nonzero;stroke:none"
             id="path42"
             inkscape:connector-curvature="0" /></g><g
           id="g44"
           transform="translate(56.3135,26.0483)"><path
             d="M 0,0 C 0.184,-0.368 0.294,-0.776 0.294,-1.213 V -21.99 c 0,-1.505 -1.279,-2.785 -2.785,-2.785 h -6.774 c -0.438,0 -0.846,0.112 -1.214,0.295 0.455,-0.916 1.389,-1.568 2.486,-1.568 h 6.775 c 1.505,0 2.785,1.279 2.785,2.785 V -2.487 C 1.567,-1.39 0.915,-0.455 0,0"
             style="fill:#636466;fill-opacity:1;fill-rule:nonzero;stroke:none"
             id="path46"
             inkscape:connector-curvature="0" /></g><g
           id="g48"
           transform="translate(68.9541,16.7427)"><path
             d="M 0,0 H 1.273 V 5.088 H 3.274 V 6.361 H 0 Z"
             style="fill:#636466;fill-opacity:1;fill-rule:nonzero;stroke:none"
             id="path50"
             inkscape:connector-curvature="0" /></g><g
           id="g52"
           transform="translate(76.4385,11.2168)"><path
             d="m 0,0 c 0.979,0.451 1.58,1.43 1.58,2.484 v 9.861 c 0,1.11 -0.646,2.056 -1.567,2.504 0.182,-0.372 0.295,-0.786 0.295,-1.231 V 3.757 c 0,-1.054 -0.604,-2.033 -1.581,-2.484 L 0.608,-9.944 H -2.85 l 0.214,-1.273 h 4.517 z"
             style="fill:#636466;fill-opacity:1;fill-rule:nonzero;stroke:none"
             id="path54"
             inkscape:connector-curvature="0" /></g><g
           id="g56"
           transform="translate(70.6855,12.2266)"><path
             d="m 0,0 h -1.731 v -10.954 h -3.244 v -1.273 h 4.517 v 10.954 h 0.672 z"
             style="fill:#636466;fill-opacity:1;fill-rule:nonzero;stroke:none"
             id="path58"
             inkscape:connector-curvature="0" /></g><g
           id="g60"
           transform="translate(88.5273,5.8281)"><path
             d="m 0,0 h 1.274 v 16.002 h 2.002 v 1.273 H 0 Z"
             style="fill:#636466;fill-opacity:1;fill-rule:nonzero;stroke:none"
             id="path62"
             inkscape:connector-curvature="0" /></g><g
           id="g64"
           transform="translate(96.0635,26.0483)"><path
             d="M 0,0 C 0.183,-0.368 0.293,-0.776 0.293,-1.213 V -21.99 c 0,-1.505 -1.278,-2.785 -2.785,-2.785 h -6.776 c -0.437,0 -0.845,0.112 -1.212,0.294 0.454,-0.915 1.388,-1.567 2.485,-1.567 h 6.775 c 1.505,0 2.785,1.279 2.785,2.785 V -2.487 C 1.567,-1.39 0.914,-0.455 0,0"
             style="fill:#636466;fill-opacity:1;fill-rule:nonzero;stroke:none"
             id="path66"
             inkscape:connector-curvature="0" /></g><g
           id="g68"
           transform="translate(108.7041,5.8281)"><path
             d="m 0,0 h 1.272 v 16.002 h 2.002 v 1.273 H 0 Z"
             style="fill:#636466;fill-opacity:1;fill-rule:nonzero;stroke:none"
             id="path70"
             inkscape:connector-curvature="0" /></g><g
           id="g72"
           transform="translate(116.2393,26.0483)"><path
             d="M 0,0 C 0.182,-0.368 0.294,-0.776 0.294,-1.213 V -21.99 c 0,-1.505 -1.28,-2.785 -2.785,-2.785 h -8.288 v -1.273 h 9.56 c 1.505,0 2.784,1.279 2.784,2.785 V -2.487 C 1.566,-1.39 0.914,-0.455 0,0"
             style="fill:#636466;fill-opacity:1;fill-rule:nonzero;stroke:none"
             id="path74"
             inkscape:connector-curvature="0" /></g><g
           id="g76"
           transform="translate(129.1055,26.3467)"><path
             d="m 0,0 v -25.074 h -3.244 v -1.273 H 1.273 L 1.273,0 Z"
             style="fill:#636466;fill-opacity:1;fill-rule:nonzero;stroke:none"
             id="path78"
             inkscape:connector-curvature="0" /></g><g
           id="g80"
           transform="translate(149.2061,26.3467)"><path
             d="m 0,0 v -25.074 h -3.61 l 0.366,-1.273 H 1.272 L 1.272,0 Z"
             style="fill:#636466;fill-opacity:1;fill-rule:nonzero;stroke:none"
             id="path82"
             inkscape:connector-curvature="0" /></g><g
           id="g84"
           transform="translate(141.376,12.791)"><path
             d="m 0,0 v -11.519 h -3.242 v -1.272 h 4.514 v 8.363 z"
             style="fill:#636466;fill-opacity:1;fill-rule:nonzero;stroke:none"
             id="path86"
             inkscape:connector-curvature="0" /></g><g
           id="g88"
           transform="translate(161.0947,10.9531)"><path
             d="m 0,0 h 3.732 v 1.272 h -5.006 c -0.441,0 -0.853,0.109 -1.222,0.291 C -2.043,0.64 -1.104,0 0,0"
             style="fill:#636466;fill-opacity:1;fill-rule:nonzero;stroke:none"
             id="path90"
             inkscape:connector-curvature="0" /></g><g
           id="g92"
           transform="translate(162.8242,9.2598)"><path
             d="M 0,0 -1.271,-0.297 V -3.432 H 0 Z"
             style="fill:#636466;fill-opacity:1;fill-rule:nonzero;stroke:none"
             id="path94"
             inkscape:connector-curvature="0" /></g><g
           id="g96"
           transform="translate(169.0869,26.0483)"><path
             d="m 0,0 c 0.183,-0.368 0.294,-0.776 0.294,-1.213 v -5.345 l -3.281,-0.759 v -1.568 l 4.554,1.054 v 5.344 C 1.566,-1.39 0.915,-0.455 0,0"
             style="fill:#636466;fill-opacity:1;fill-rule:nonzero;stroke:none"
             id="path98"
             inkscape:connector-curvature="0" /></g><g
           id="g100"
           transform="translate(169.0869,15.1704)"><path
             d="m 0,0 c 0.183,-0.368 0.294,-0.776 0.294,-1.213 v -9.899 c 0,-1.505 -1.279,-2.785 -2.785,-2.785 h -6.775 c -0.437,0 -0.846,0.112 -1.214,0.295 0.454,-0.916 1.39,-1.568 2.488,-1.568 h 6.774 c 1.506,0 2.784,1.279 2.784,2.785 v 9.9 C 1.566,-1.389 0.916,-0.455 0,0"
             style="fill:#636466;fill-opacity:1;fill-rule:nonzero;stroke:none"
             id="path102"
             inkscape:connector-curvature="0" /></g><g
           id="g104"
           transform="translate(161.5527,23.1035)"><path
             d="m 0,0 v -6.361 h 1.271 v 5.088 H 3.274 V 0 Z"
             style="fill:#636466;fill-opacity:1;fill-rule:nonzero;stroke:none"
             id="path106"
             inkscape:connector-curvature="0" /></g><g
           id="g108"
           transform="translate(182.1426,12.2266)"><path
             d="m 0,0 h -0.414 v -10.954 h -3.245 v -1.273 h 4.518 v 9.489 z"
             style="fill:#636466;fill-opacity:1;fill-rule:nonzero;stroke:none"
             id="path110"
             inkscape:connector-curvature="0" /></g><g
           id="g112"
           transform="translate(191.3945,26.3467)"><path
             d="m 0,0 h -1.682 l -3.807,-11.862 4.216,-13.212 h -3.67 l 0.351,-1.123 0.038,-0.15 H 0 l -4.215,13.211 z"
             style="fill:#636466;fill-opacity:1;fill-rule:nonzero;stroke:none"
             id="path114"
             inkscape:connector-curvature="0" /></g><g
           id="g116"
           transform="translate(202.0166,26.3467)"><path
             d="m 0,0 v -25.074 h -3.244 v -1.273 H 1.273 L 1.273,0 Z"
             style="fill:#636466;fill-opacity:1;fill-rule:nonzero;stroke:none"
             id="path118"
             inkscape:connector-curvature="0" /></g><g
           id="g120"
           transform="translate(221.0469,10.9512)"><path
             d="M 0,0 3.493,3.494 4.767,2.222 1.273,-1.272 Z"
             style="fill:#636466;fill-opacity:1;fill-rule:nonzero;stroke:none"
             id="path122"
             inkscape:connector-curvature="0" /></g><g
           id="g124"
           transform="translate(5.915,10.9531)"><path
             d="M 0,0 3.494,3.494 4.768,2.221 1.273,-1.273 Z"
             style="fill:#636466;fill-opacity:1;fill-rule:nonzero;stroke:none"
             id="path126"
             inkscape:connector-curvature="0" /></g><path
           d="M 29.459,14.645 H 26.184 V 8.247 h 3.275 z m 0,10.878 h -3.275 v -6.361 h 3.275 z M 34.013,19.5 c 0,-0.865 -0.376,-1.619 -1.016,-2.146 0.564,-0.602 1.016,-1.278 1.016,-2.256 v -8.62 c 0,-1.506 -1.281,-2.786 -2.785,-2.786 h -9.56 V 30.04 h 9.56 c 1.504,0 2.785,-1.243 2.785,-2.787 z"
           style="fill:#ffffff;fill-opacity:1;fill-rule:nonzero;stroke:none"
           id="path128"
           inkscape:connector-curvature="0" /><path
           d="M 49.634,25.523 H 46.359 V 8.246 h 3.275 z m 1.768,4.517 c 1.506,0 2.786,-1.243 2.786,-2.787 V 6.478 c 0,-1.506 -1.28,-2.786 -2.786,-2.786 h -6.774 c -1.543,0 -2.786,1.28 -2.786,2.786 v 20.775 c 0.001,1.544 1.243,2.787 2.786,2.787 z"
           style="fill:#ffffff;fill-opacity:1;fill-rule:nonzero;stroke:none"
           id="path130"
           inkscape:connector-curvature="0" /><path
           d="M 69.81,25.523 H 66.536 V 19.162 H 69.81 Z M 70.11,3.692 68.266,14.645 H 66.534 V 3.692 H 62.018 V 30.04 h 9.561 c 1.505,0 2.748,-1.243 2.748,-2.787 v -9.86 c 0,-1.055 -0.603,-2.033 -1.581,-2.484 L 74.628,3.692 Z"
           style="fill:#ffffff;fill-opacity:1;fill-rule:nonzero;stroke:none"
           id="path132"
           inkscape:connector-curvature="0" /><path
           d="M 89.384,25.523 H 86.109 V 8.246 h 3.275 z m 1.768,4.517 c 1.506,0 2.785,-1.243 2.785,-2.787 V 6.478 c 0,-1.506 -1.279,-2.786 -2.785,-2.786 h -6.774 c -1.543,0 -2.785,1.28 -2.785,2.786 v 20.775 c 0,1.544 1.242,2.787 2.785,2.787 z"
           style="fill:#ffffff;fill-opacity:1;fill-rule:nonzero;stroke:none"
           id="path134"
           inkscape:connector-curvature="0" /><path
           d="m 109.559,25.523 h -3.274 V 8.246 h 3.274 z m 1.77,4.517 c 1.505,0 2.784,-1.243 2.784,-2.787 V 6.478 c 0,-1.506 -1.278,-2.786 -2.784,-2.786 h -9.561 V 30.04 Z"
           style="fill:#ffffff;fill-opacity:1;fill-rule:nonzero;stroke:none"
           id="path136"
           inkscape:connector-curvature="0" /><path
           d="m 122.17,30.04 h 4.517 V 3.693 h -4.517 z"
           style="fill:#ffffff;fill-opacity:1;fill-rule:nonzero;stroke:none"
           id="path138"
           inkscape:connector-curvature="0" /><g
           id="g140"
           transform="translate(146.7852,30.0396)"><path
             d="m 0,0 v -26.347 h -4.517 l -3.311,11.517 v -11.517 h -4.518 V 0 h 4.48 l 3.311,-10.803 V 0 Z"
             style="fill:#ffffff;fill-opacity:1;fill-rule:nonzero;stroke:none"
             id="path142"
             inkscape:connector-curvature="0" /></g><g
           id="g144"
           transform="translate(164.1768,19.1626)"><path
             d="m 0,0 c 1.504,0 2.785,-1.242 2.785,-2.785 v -9.899 c 0,-1.506 -1.281,-2.785 -2.785,-2.785 h -6.776 c -1.544,0 -2.785,1.279 -2.785,2.785 v 5.42 l 4.516,1.055 v -4.706 h 3.274 v 6.398 h -5.005 c -1.544,0 -2.785,1.243 -2.785,2.786 v 9.822 c 0,1.543 1.241,2.786 2.785,2.786 h 6.775 c 1.504,0 2.785,-1.242 2.785,-2.786 V 2.747 L -1.771,1.693 v 4.668 h -3.275 l 0,-6.361 z"
             style="fill:#ffffff;fill-opacity:1;fill-rule:nonzero;stroke:none"
             id="path146"
             inkscape:connector-curvature="0" /></g><g
           id="g148"
           transform="translate(183.4854,16.9038)"><path
             d="m 0,0 4.217,-13.21 h -4.555 l -0.038,0.15 -3.388,10.802 H -4.179 V -13.21 h -4.515 v 26.346 h 4.515 V 2.259 h 0.34 l 3.463,10.877 h 4.593 z"
             style="fill:#ffffff;fill-opacity:1;fill-rule:nonzero;stroke:none"
             id="path150"
             inkscape:connector-curvature="0" /></g><path
           d="m 195.081,30.04 h 4.516 V 3.693 h -4.516 z"
           style="fill:#ffffff;fill-opacity:1;fill-rule:nonzero;stroke:none"
           id="path152"
           inkscape:connector-curvature="0" /></g></g></g></svg>